<svg width="64" height="64" viewBox="0 0 64 64" fill="none" xmlns="http://www.w3.org/2000/svg">
<path fill-rule="evenodd" clip-rule="evenodd" d="M59 12.7143C59 8.45214 55.5479 5 51.2857 5H12.7143C8.45214 5 5 8.45214 5 12.7143V51.2857C5 55.5479 8.45214 59 12.7143 59H51.2857C55.5479 59 59 55.5479 59 51.2857V12.7143Z" fill="#161616" style="filter: drop-shadow(0 0 2px rgba(255, 255, 255, 0.3));"/>
<path fill-rule="evenodd" clip-rule="evenodd" d="M38.7596 25.2597C42.4914 25.2597 45.5193 28.2875 45.5193 32.0193C45.5193 35.7511 42.4914 38.7789 38.7596 38.7789C35.0279 38.7789 32 35.7511 32 32.0193C32 28.2875 35.0279 25.2597 38.7596 25.2597Z" fill="#0CC2FF"/>
<path fill-rule="evenodd" clip-rule="evenodd" d="M45.5 18.5C45.5 14.7682 42.4818 11.75 38.75 11.75H25.2307C21.4989 11.75 18.4807 14.7682 18.4807 18.5C18.4807 22.2318 21.4989 25.25 25.2307 25.25H38.75C42.4818 25.25 45.5 22.2318 45.5 18.5Z" fill="#FF7568"/>
<path fill-rule="evenodd" clip-rule="evenodd" d="M31.9904 25.2597H25.2307C23.4371 25.2597 21.7207 25.9732 20.4575 27.2364C19.1943 28.4997 18.4807 30.2161 18.4807 32.0097C18.4807 33.8032 19.1943 35.5197 20.4575 36.7829C21.7207 38.0461 23.4371 38.7597 25.2307 38.7597H31.9904V25.2597Z" fill="#AF5BFF"/>
<path fill-rule="evenodd" clip-rule="evenodd" d="M31.9904 11.75H25.2307C23.4371 11.75 21.7207 12.4636 20.4575 13.7268C19.1943 14.99 18.4807 16.7064 18.4807 18.5C18.4807 20.2936 19.1943 22.01 20.4575 23.2732C21.7207 24.5364 23.4371 25.25 25.2307 25.25H31.9904V11.75Z" fill="#FF4611"/>
<path fill-rule="evenodd" clip-rule="evenodd" d="M32 38.7404H25.2404C23.4468 38.7404 21.7304 39.4539 20.4671 40.7171C19.2039 41.9804 18.4904 43.6968 18.4904 45.4904C18.4904 47.2839 19.2039 49.0004 20.4671 50.2636C21.7304 51.5268 23.4468 52.2404 25.2404 52.2404C27.0339 52.2404 28.7504 51.5268 30.0136 50.2636C31.2768 49.0004 31.9904 47.2839 31.9904 45.4904V38.7404H32Z" fill="#00E681"/>
</svg>
