<svg width="64" height="64" viewBox="0 0 64 64" fill="none" xmlns="http://www.w3.org/2000/svg">
<path d="M57.9826 29.5891L34.4103 6.01809C33.0537 4.66064 30.852 4.66064 29.4932 6.01809L24.5993 10.9133L30.8084 17.1223C32.2518 16.6352 33.906 16.9619 35.0561 18.112C36.2121 19.2693 36.5367 20.9376 36.0367 22.3858L42.0208 28.3707C43.4685 27.8716 45.1394 28.1941 46.295 29.3522C47.9116 30.9676 47.9116 33.5862 46.295 35.2024C44.6784 36.819 42.0606 36.819 40.4431 35.2024C39.2276 33.9861 38.927 32.2006 39.5428 30.7028L33.9625 25.122L33.9616 39.8089C34.3559 40.0035 34.7276 40.2636 35.0561 40.5907C36.6723 42.2061 36.6723 44.8239 35.0561 46.4427C33.4399 48.058 30.8203 48.058 29.2058 46.4427C27.5901 44.8243 27.4575 42.2065 29.0728 40.5907C29.4723 40.1917 29.8662 39.8902 30.2939 39.6883V24.8654C29.8662 24.6636 29.4727 24.3642 29.0724 23.9626C27.8488 22.7395 27.62 20.9432 28.2478 19.4395L22.1607 13.3181L6.01414 29.4801C4.65626 30.8388 4.66482 33.0405 6.0227 34.3984L29.5989 57.9694C30.9559 59.3269 33.1593 59.3269 34.5185 57.9694L57.9809 34.5079C59.3388 33.1496 59.3401 30.9466 57.9826 29.5891Z" fill="#F34F29"/>
</svg>
