<svg width="64" height="64" viewBox="0 0 64 64" fill="none" xmlns="http://www.w3.org/2000/svg" >
<path d="M31.683 5C25.1096 5.00027 18.7508 7.33952 13.7444 11.5992C8.73791 15.8588 5.41052 21.7609 4.35755 28.2494C3.30459 34.7379 4.59475 41.3894 7.99721 47.0136C11.3997 52.6379 16.6924 56.868 22.9283 58.947C24.3125 59.1893 24.8315 58.3588 24.8315 57.6321C24.8315 56.9746 24.7969 54.7946 24.7969 52.4762C17.8415 53.7565 16.0421 50.7807 15.4885 49.2235C14.8741 47.709 13.9002 46.367 12.651 45.3132C11.6821 44.7942 10.2979 43.5138 12.6163 43.4793C13.5016 43.5753 14.3507 43.8834 15.0916 44.3773C15.8325 44.8712 16.4434 45.5365 16.8726 46.3167C17.2512 46.9969 17.7604 47.5956 18.3708 48.0787C18.9812 48.5618 19.681 48.9196 20.43 49.1318C21.1789 49.3439 21.9624 49.4062 22.7355 49.3151C23.5086 49.2239 24.2561 48.9811 24.9352 48.6005C25.055 47.1932 25.6823 45.8774 26.7 44.898C20.5406 44.206 14.1043 41.8182 14.1043 31.2296C14.0654 28.4783 15.0807 25.8164 16.9418 23.7898C16.0955 21.3987 16.1945 18.7745 17.2187 16.4539C17.2187 16.4539 19.537 15.7272 24.8314 19.2914C29.3612 18.0456 34.1432 18.0456 38.6729 19.2914C43.9672 15.6926 46.2857 16.4539 46.2857 16.4539C47.31 18.7745 47.409 21.3987 46.5625 23.7898C48.4293 25.813 49.4454 28.4772 49.4 31.2296C49.4 41.8528 42.9291 44.206 36.7697 44.898C37.4304 45.5677 37.9392 46.3716 38.2616 47.2553C38.584 48.1389 38.7125 49.0817 38.6383 50.0194C38.6383 53.722 38.6037 56.6978 38.6037 57.6322C38.6037 58.3589 39.1227 59.2239 40.5069 58.9471C46.7318 56.8512 52.0093 52.6112 55.3973 46.984C58.7852 41.3569 60.0631 34.7088 59.0029 28.2266C57.9426 21.7444 54.6132 15.85 49.6089 11.5955C44.6047 7.341 38.2513 5.00342 31.683 5Z" fill="black" style="filter: drop-shadow(0 0 2px rgba(255, 255, 255, 0.3));"/>
</svg>
