<svg width="64" height="64" viewBox="0 0 64 64" fill="none" xmlns="http://www.w3.org/2000/svg">
<path d="M12.3335 53.6022L8 5H55.6145L51.2765 53.5933L31.778 59L12.3335 53.6022Z" fill="#E44D26"/>
<path d="M31.8073 57.9359L49.6771 52.983L53.8798 5.88547H31.8073V57.9359Z" fill="#F16529"/>
<path d="M31.8073 26.33H22.8608L22.2433 19.4072H31.8073V12.6476H14.856L15.0168 14.4593L16.678 33.0896H31.8073V26.33ZM31.8073 43.886L31.7766 43.8937L24.249 41.8599L23.7667 36.4681H16.9816L17.9283 47.0834L31.7766 50.9263L31.8073 50.9186V43.886Z" fill="#EBEBEB"/>
<path d="M31.7843 26.33V33.0896H40.1081L39.3221 41.8574L31.7817 43.8911V50.9237L45.6403 47.0834L45.7423 45.9402L47.3321 28.1418L47.4979 26.3275H45.676L31.7843 26.33ZM31.7843 12.6476V19.4071H48.1129L48.2481 17.8863L48.5569 14.4593L48.7177 12.645L31.7843 12.6476Z" fill="white"/>
</svg>
