<svg width="64" height="64" viewBox="0 0 64 64" fill="none" xmlns="http://www.w3.org/2000/svg">
<path d="M18.6931 58.8084C16.6044 58.785 14.5354 58.402 12.5769 57.676C11.1466 57.1473 9.85265 56.3057 8.78949 55.2126C7.6935 54.1516 6.85064 52.8573 6.32352 51.4258C5.5981 49.4673 5.21556 47.3985 5.1927 45.3101C5.03229 41.8382 5 40.7969 5 31.9997C5 23.2026 5.03547 22.1649 5.19112 18.6905C5.21675 16.6029 5.59976 14.5351 6.32352 12.5769C6.8532 11.1464 7.69487 9.8519 8.78737 8.78737C9.84922 7.69237 11.1438 6.85029 12.5753 6.32352C14.5338 5.5975 16.6029 5.21442 18.6915 5.19112C22.1644 5.03229 23.2074 5 31.9997 5C40.7921 5 41.8345 5.03547 45.309 5.19112C47.3971 5.21657 49.4654 5.59958 51.4242 6.32352C52.855 6.85098 54.1493 7.69277 55.2116 8.78684C56.306 9.84949 57.1481 11.1441 57.676 12.5753C58.4022 14.5338 58.7854 16.6028 58.8089 18.6915C58.9677 22.166 59 23.2063 59 32.0008C59 40.7953 58.9677 41.8356 58.8089 45.3101C58.7837 47.3984 58.4005 49.467 57.676 51.4258C57.1279 52.8463 56.2885 54.1363 55.2118 55.2127C54.135 56.2892 52.8448 57.1283 51.4242 57.676C49.4657 58.4021 47.3966 58.7854 45.308 58.8089C41.8366 58.9677 40.7932 59 31.9987 59C23.2042 59 22.1639 58.9693 18.6926 58.8089" fill="url(#paint0_radial_149_236)"/>
<path d="M18.6931 58.8084C16.6044 58.785 14.5354 58.402 12.5769 57.676C11.1466 57.1473 9.85265 56.3057 8.78949 55.2126C7.6935 54.1516 6.85064 52.8573 6.32352 51.4258C5.5981 49.4673 5.21556 47.3985 5.1927 45.3101C5.03229 41.8382 5 40.7969 5 31.9997C5 23.2026 5.03547 22.1649 5.19112 18.6905C5.21675 16.6029 5.59976 14.5351 6.32352 12.5769C6.8532 11.1464 7.69487 9.8519 8.78737 8.78737C9.84922 7.69237 11.1438 6.85029 12.5753 6.32352C14.5338 5.5975 16.6029 5.21442 18.6915 5.19112C22.1644 5.03229 23.2074 5 31.9997 5C40.7921 5 41.8345 5.03547 45.309 5.19112C47.3971 5.21657 49.4654 5.59958 51.4242 6.32352C52.855 6.85098 54.1493 7.69277 55.2116 8.78684C56.306 9.84949 57.1481 11.1441 57.676 12.5753C58.4022 14.5338 58.7854 16.6028 58.8089 18.6915C58.9677 22.166 59 23.2063 59 32.0008C59 40.7953 58.9677 41.8356 58.8089 45.3101C58.7837 47.3984 58.4005 49.467 57.676 51.4258C57.1279 52.8463 56.2885 54.1363 55.2118 55.2127C54.135 56.2892 52.8448 57.1283 51.4242 57.676C49.4657 58.4021 47.3966 58.7854 45.308 58.8089C41.8366 58.9677 40.7932 59 31.9987 59C23.2042 59 22.1639 58.9693 18.6926 58.8089" fill="url(#paint1_radial_149_236)"/>
<path d="M25.3749 32.0597C25.375 30.7372 25.7673 29.4443 26.5022 28.3447C27.2371 27.2451 28.2815 26.3881 29.5035 25.8821C30.7254 25.3761 32.07 25.2438 33.3671 25.502C34.6643 25.7601 35.8557 26.3971 36.7908 27.3325C37.7259 28.2678 38.3626 29.4594 38.6205 30.7566C38.8783 32.0538 38.7457 33.3983 38.2394 34.6201C37.7331 35.8419 36.8759 36.8862 35.7761 37.6208C34.6763 38.3554 33.3834 38.7474 32.0608 38.7472C30.2874 38.7469 28.5867 38.0422 27.3329 36.7881C26.0791 35.534 25.3748 33.8331 25.3749 32.0597ZM21.7596 32.0597C21.7596 34.0971 22.3638 36.0888 23.4957 37.7828C24.6276 39.4768 26.2364 40.7971 28.1187 41.5768C30.001 42.3565 32.0722 42.5605 34.0705 42.163C36.0687 41.7655 37.9042 40.7844 39.3448 39.3438C40.7855 37.9031 41.7666 36.0676 42.1641 34.0694C42.5615 32.0712 42.3575 29.9999 41.5779 28.1176C40.7982 26.2353 39.4779 24.6265 37.7838 23.4946C36.0898 22.3627 34.0982 21.7585 32.0608 21.7585C30.708 21.7585 29.3685 22.0249 28.1186 22.5425C26.8688 23.0602 25.7332 23.819 24.7766 24.7755C23.82 25.7321 23.0613 26.8677 22.5436 28.1176C22.0259 29.3674 21.7595 30.7069 21.7596 32.0597ZM40.3624 21.3504C40.3622 21.8265 40.5032 22.2919 40.7675 22.6879C41.0319 23.0839 41.4077 23.3926 41.8475 23.575C42.2872 23.7574 42.7712 23.8053 43.2382 23.7126C43.7052 23.6199 44.1342 23.3908 44.471 23.0543C44.8079 22.7178 45.0373 22.289 45.1304 21.8221C45.2235 21.3552 45.176 20.8712 44.994 20.4312C44.812 19.9913 44.5036 19.6152 44.1079 19.3505C43.7121 19.0858 43.2468 18.9444 42.7707 18.9442C42.1325 18.9445 41.5206 19.1981 41.0692 19.6492C40.6179 20.1004 40.364 20.7122 40.3635 21.3504M23.9572 48.3893C22.6851 48.3753 21.4249 48.1425 20.2317 47.7011C19.3665 47.3676 18.5806 46.8566 17.9248 46.201C17.2689 45.5454 16.7576 44.7598 16.4237 43.8946C15.9821 42.7016 15.7493 41.4413 15.7355 40.1692C15.6381 38.0547 15.619 37.4195 15.619 32.0624C15.619 26.7053 15.6402 26.0716 15.7355 23.9551C15.7509 22.6831 15.9837 21.4231 16.4237 20.2296C16.7572 19.3641 17.2684 18.578 17.9243 17.9221C18.5801 17.2663 19.3662 16.7551 20.2317 16.4216C21.4248 15.98 22.6851 15.7472 23.9572 15.7334C26.0716 15.636 26.7069 15.6169 32.0619 15.6169C37.4168 15.6169 38.0526 15.6376 40.1692 15.7339C41.4411 15.7493 42.7011 15.9821 43.8946 16.4221C44.7602 16.7556 45.5462 17.2668 46.2021 17.9227C46.858 18.5786 47.3691 19.3646 47.7026 20.2301C48.1443 21.4232 48.3771 22.6835 48.3909 23.9556C48.4883 26.0732 48.5073 26.7053 48.5073 32.0629C48.5073 37.4205 48.4877 38.0537 48.3909 40.1703C48.376 41.4423 48.1433 42.7023 47.7026 43.8957C47.3688 44.7608 46.8575 45.5465 46.2016 46.202C45.5458 46.8576 44.7599 47.3686 43.8946 47.7021C42.7015 48.1437 41.4413 48.3766 40.1692 48.3904C38.0547 48.4878 37.4194 48.5068 32.0619 48.5068C26.7043 48.5068 26.0711 48.4872 23.9572 48.3904M23.7909 12.1212C22.1264 12.154 20.4795 12.469 18.9204 13.053C17.5876 13.5683 16.3772 14.3564 15.3668 15.3668C14.3564 16.3772 13.5683 17.5876 13.053 18.9204C12.4691 20.4795 12.154 22.1264 12.1212 23.7909C12.0222 25.9297 12 26.6137 12 32.0619C12 37.51 12.0228 38.1935 12.1212 40.3328C12.154 41.9973 12.4691 43.6442 13.053 45.2033C13.5683 46.5361 14.3565 47.7465 15.3669 48.7569C16.3773 49.7673 17.5876 50.5554 18.9204 51.0707C20.4796 51.6544 22.1264 51.9695 23.7909 52.0025C25.9308 52.0999 26.6137 52.1237 32.0619 52.1237C37.51 52.1237 38.1935 52.101 40.3328 52.0025C41.9973 51.9696 43.6442 51.6546 45.2033 51.0707C46.5361 50.5554 47.7465 49.7673 48.7569 48.7569C49.7673 47.7465 50.5554 46.5361 51.0707 45.2033C51.6554 43.6444 51.9705 41.9974 52.0025 40.3328C52.0999 38.1924 52.1221 37.51 52.1221 32.0619C52.1221 26.6137 52.0994 25.9303 52.0025 23.7909C51.9698 22.1264 51.6547 20.4795 51.0707 18.9204C50.5554 17.5879 49.7675 16.3777 48.7574 15.3673C47.7473 14.3569 46.5373 13.5686 45.2049 13.053C43.6459 12.4686 41.9989 12.1536 40.3344 12.1212C38.195 12.0233 37.5116 12 32.0645 12C26.6174 12 25.9324 12.0228 23.792 12.1212" fill="white"/>
<defs>
<radialGradient id="paint0_radial_149_236" cx="0" cy="0" r="1" gradientUnits="userSpaceOnUse" gradientTransform="translate(8.49461 57.8168) scale(68.5592)">
<stop offset="0.09" stop-color="#FA8F21"/>
<stop offset="0.78" stop-color="#D82D7E"/>
</radialGradient>
<radialGradient id="paint1_radial_149_236" cx="0" cy="0" r="1" gradientUnits="userSpaceOnUse" gradientTransform="translate(42.4036 56.0824) scale(60.3328)">
<stop offset="0.64" stop-color="#8C3AAA" stop-opacity="0"/>
<stop offset="1" stop-color="#8C3AAA"/>
</radialGradient>
</defs>
</svg>
