<svg width="48" height="48" viewBox="0 0 48 48" fill="none" xmlns="http://www.w3.org/2000/svg">
<path d="M24 0C37.2548 0 48 10.7452 48 24C48 37.2548 37.2548 48 24 48C10.7452 48 0 37.2548 0 24C0 10.7452 10.7452 0 24 0ZM8.57715 7.95312C8.47624 7.95174 8.42466 8.05213 8.42188 8.25391C8.41911 8.45545 8.46774 8.55691 8.56836 8.55859C9.61127 8.5729 10.3677 8.68426 10.8359 8.89258C11.3381 9.06773 11.6703 9.39207 11.832 9.86523C12.0274 10.339 12.1174 11.0806 12.1035 12.0898L11.7832 35.4541C11.7694 36.4634 11.658 37.2198 11.4492 37.7217C11.2745 38.1901 10.9335 38.5048 10.4268 38.666C9.91981 38.8272 9.12813 38.9005 8.05176 38.8857C7.98454 38.8849 7.94906 38.9857 7.94629 39.1875C7.94354 39.3893 7.97668 39.4903 8.04395 39.4912C9.1876 39.5069 10.0963 39.5029 10.7695 39.4785L14.5039 39.4795C15.4795 39.4929 16.3546 39.5212 17.1279 39.5654C17.9346 39.6101 18.6068 39.6533 19.1445 39.6943C20.6232 39.8156 21.9011 39.8837 22.9775 39.8984C26.0053 39.94 28.7904 39.3052 31.332 37.9941C33.9078 36.6499 35.9534 34.7427 37.4678 32.2734C39.0161 29.7711 39.8127 26.8881 39.8574 23.625C39.8971 20.7319 39.2097 18.1145 37.7949 15.7734C36.3802 13.4323 34.353 11.5706 31.7139 10.1885C29.1082 8.80679 26.1059 8.09251 22.708 8.0459C22.1024 8.0376 20.9247 8.05536 19.1748 8.09863C17.7269 8.17971 16.3129 8.2113 14.9336 8.19238C14.0253 8.17992 12.7976 8.12855 11.251 8.04004L8.57715 7.95312ZM23.1875 9.33789C25.398 9.56345 26.5784 9.71013 28.7715 11.2588C30.3678 12.6266 32.3255 13.9403 32.4297 16.8613C32.6164 22.1052 27.5197 21.3397 27.4805 24.1992C27.4396 27.1931 32.7969 26.9324 32.1162 32.3516C31.4437 35.278 29.8776 36.1068 28.2139 37.1943C26.3911 37.9942 24.7215 38.4814 22.4658 38.4814C20.4476 38.4538 19.1122 38.415 18.4131 37.8672C17.7145 37.2856 17.3742 36.3221 17.3926 34.9766L17.7041 12.2676C17.7221 10.9556 18.1211 10.103 18.9004 9.70996C19.6797 9.31709 21.1023 9.30929 23.1875 9.33789Z" fill="#6E4997"/>
</svg>
